<?xml version="1.0" encoding="utf-8" standalone="no"?>
<!DOCTYPE svg PUBLIC "-//W3C//DTD SVG 1.1//EN"
  "http://www.w3.org/Graphics/SVG/1.1/DTD/svg11.dtd">
<!-- Created with matplotlib (https://matplotlib.org/) -->
<svg height="92.78225pt" version="1.1" viewBox="0 0 161.63 92.78225" width="161.63pt" xmlns="http://www.w3.org/2000/svg" xmlns:xlink="http://www.w3.org/1999/xlink">
 <defs>
  <style type="text/css">
*{stroke-linecap:butt;stroke-linejoin:round;}
  </style>
 </defs>
 <g id="figure_1">
  <g id="patch_1">
   <path d="M 0 92.78225 
L 161.63 92.78225 
L 161.63 -0 
L 0 -0 
z
" style="fill:#ffffff;"/>
  </g>
  <g id="axes_1">
   <g id="patch_2">
    <path d="M 38.03 58.206 
L 149.63 58.206 
L 149.63 12 
L 38.03 12 
z
" style="fill:#ffffff;"/>
   </g>
   <g id="PolyCollection_1">
    <path clip-path="url(#p0f11a25522)" d="M -9.189766 58.190232 
L -9.189766 58.206 
L -7.922172 58.206 
L -6.654577 58.206 
L -5.386983 58.206 
L -4.119389 58.206 
L -2.851795 58.206 
L -1.584201 58.206 
L -0.316607 58.206 
L 0.950987 58.206 
L 2.218582 58.206 
L 3.486176 58.206 
L 4.75377 58.206 
L 6.021364 58.206 
L 7.288958 58.206 
L 8.556552 58.206 
L 9.824146 58.206 
L 11.091741 58.206 
L 12.359335 58.206 
L 13.626929 58.206 
L 14.894523 58.206 
L 16.162117 58.206 
L 17.429711 58.206 
L 18.697305 58.206 
L 19.9649 58.206 
L 21.232494 58.206 
L 22.500088 58.206 
L 23.767682 58.206 
L 25.035276 58.206 
L 26.30287 58.206 
L 27.570465 58.206 
L 28.838059 58.206 
L 30.105653 58.206 
L 31.373247 58.206 
L 32.640841 58.206 
L 33.908435 58.206 
L 35.176029 58.206 
L 36.443624 58.206 
L 37.711218 58.206 
L 38.978812 58.206 
L 40.246406 58.206 
L 41.514 58.206 
L 42.781594 58.206 
L 44.049188 58.206 
L 45.316783 58.206 
L 46.584377 58.206 
L 47.851971 58.206 
L 49.119565 58.206 
L 50.387159 58.206 
L 51.654753 58.206 
L 52.922347 58.206 
L 54.189942 58.206 
L 55.457536 58.206 
L 56.72513 58.206 
L 57.992724 58.206 
L 59.260318 58.206 
L 60.527912 58.206 
L 61.795506 58.206 
L 63.063101 58.206 
L 64.330695 58.206 
L 65.598289 58.206 
L 66.865883 58.206 
L 68.133477 58.206 
L 69.401071 58.206 
L 70.668666 58.206 
L 71.93626 58.206 
L 73.203854 58.206 
L 74.471448 58.206 
L 75.739042 58.206 
L 77.006636 58.206 
L 78.27423 58.206 
L 79.541825 58.206 
L 80.809419 58.206 
L 82.077013 58.206 
L 83.344607 58.206 
L 84.612201 58.206 
L 85.879795 58.206 
L 87.147389 58.206 
L 88.414984 58.206 
L 89.682578 58.206 
L 90.950172 58.206 
L 92.217766 58.206 
L 93.48536 58.206 
L 94.752954 58.206 
L 96.020548 58.206 
L 97.288143 58.206 
L 98.555737 58.206 
L 99.823331 58.206 
L 101.090925 58.206 
L 102.358519 58.206 
L 103.626113 58.206 
L 104.893707 58.206 
L 106.161302 58.206 
L 107.428896 58.206 
L 108.69649 58.206 
L 109.964084 58.206 
L 111.231678 58.206 
L 112.499272 58.206 
L 113.766866 58.206 
L 115.034461 58.206 
L 116.302055 58.206 
L 116.302055 58.190232 
L 116.302055 58.190232 
L 115.034461 58.198794 
L 113.766866 58.205305 
L 112.499272 58.205516 
L 111.231678 58.199924 
L 109.964084 58.18674 
L 108.69649 58.17572 
L 107.428896 58.164223 
L 106.161302 58.170667 
L 104.893707 58.160169 
L 103.626113 58.14652 
L 102.358519 58.094244 
L 101.090925 57.996221 
L 99.823331 58.009567 
L 98.555737 58.001966 
L 97.288143 57.90883 
L 96.020548 57.845622 
L 94.752954 57.604725 
L 93.48536 57.165151 
L 92.217766 56.437393 
L 90.950172 55.593285 
L 89.682578 54.550304 
L 88.414984 53.281746 
L 87.147389 51.966005 
L 85.879795 49.867824 
L 84.612201 46.545591 
L 83.344607 42.430239 
L 82.077013 38.369059 
L 80.809419 34.752726 
L 79.541825 30.33223 
L 78.27423 24.530377 
L 77.006636 19.907111 
L 75.739042 17.320376 
L 74.471448 15.513312 
L 73.203854 14.200286 
L 71.93626 15.358586 
L 70.668666 19.076098 
L 69.401071 23.84935 
L 68.133477 29.09108 
L 66.865883 35.04696 
L 65.598289 40.862159 
L 64.330695 45.686739 
L 63.063101 49.234197 
L 61.795506 51.975803 
L 60.527912 53.67788 
L 59.260318 54.992546 
L 57.992724 56.059716 
L 56.72513 56.676774 
L 55.457536 57.109902 
L 54.189942 57.477978 
L 52.922347 57.625836 
L 51.654753 57.688099 
L 50.387159 57.812671 
L 49.119565 57.981095 
L 47.851971 58.060491 
L 46.584377 58.085841 
L 45.316783 58.091144 
L 44.049188 58.13441 
L 42.781594 58.175498 
L 41.514 58.16717 
L 40.246406 58.175372 
L 38.978812 58.195907 
L 37.711218 58.188948 
L 36.443624 58.161153 
L 35.176029 58.161682 
L 33.908435 58.154206 
L 32.640841 58.144926 
L 31.373247 58.106837 
L 30.105653 58.105157 
L 28.838059 58.147548 
L 27.570465 58.156208 
L 26.30287 58.127588 
L 25.035276 58.127917 
L 23.767682 58.153807 
L 22.500088 58.15796 
L 21.232494 58.160204 
L 19.9649 58.185792 
L 18.697305 58.194805 
L 17.429711 58.176247 
L 16.162117 58.185047 
L 14.894523 58.202892 
L 13.626929 58.205135 
L 12.359335 58.19838 
L 11.091741 58.190248 
L 9.824146 58.1992 
L 8.556552 58.205387 
L 7.288958 58.205988 
L 6.021364 58.205989 
L 4.75377 58.205413 
L 3.486176 58.199346 
L 2.218582 58.190262 
L 0.950987 58.198227 
L -0.316607 58.205198 
L -1.584201 58.205983 
L -2.851795 58.206 
L -4.119389 58.206 
L -5.386983 58.205986 
L -6.654577 58.205312 
L -7.922172 58.198794 
L -9.189766 58.190232 
z
" style="fill:#804d00;fill-opacity:0.25;"/>
   </g>
   <g id="PolyCollection_2">
    <path clip-path="url(#p0f11a25522)" d="M 3.497214 58.177791 
L 3.497214 58.206 
L 4.837855 58.206 
L 6.178496 58.206 
L 7.519136 58.206 
L 8.859777 58.206 
L 10.200418 58.206 
L 11.541059 58.206 
L 12.881699 58.206 
L 14.22234 58.206 
L 15.562981 58.206 
L 16.903622 58.206 
L 18.244263 58.206 
L 19.584903 58.206 
L 20.925544 58.206 
L 22.266185 58.206 
L 23.606826 58.206 
L 24.947466 58.206 
L 26.288107 58.206 
L 27.628748 58.206 
L 28.969389 58.206 
L 30.31003 58.206 
L 31.65067 58.206 
L 32.991311 58.206 
L 34.331952 58.206 
L 35.672593 58.206 
L 37.013233 58.206 
L 38.353874 58.206 
L 39.694515 58.206 
L 41.035156 58.206 
L 42.375797 58.206 
L 43.716437 58.206 
L 45.057078 58.206 
L 46.397719 58.206 
L 47.73836 58.206 
L 49.079 58.206 
L 50.419641 58.206 
L 51.760282 58.206 
L 53.100923 58.206 
L 54.441564 58.206 
L 55.782204 58.206 
L 57.122845 58.206 
L 58.463486 58.206 
L 59.804127 58.206 
L 61.144767 58.206 
L 62.485408 58.206 
L 63.826049 58.206 
L 65.16669 58.206 
L 66.50733 58.206 
L 67.847971 58.206 
L 69.188612 58.206 
L 70.529253 58.206 
L 71.869894 58.206 
L 73.210534 58.206 
L 74.551175 58.206 
L 75.891816 58.206 
L 77.232457 58.206 
L 78.573097 58.206 
L 79.913738 58.206 
L 81.254379 58.206 
L 82.59502 58.206 
L 83.935661 58.206 
L 85.276301 58.206 
L 86.616942 58.206 
L 87.957583 58.206 
L 89.298224 58.206 
L 90.638864 58.206 
L 91.979505 58.206 
L 93.320146 58.206 
L 94.660787 58.206 
L 96.001428 58.206 
L 97.342068 58.206 
L 98.682709 58.206 
L 100.02335 58.206 
L 101.363991 58.206 
L 102.704631 58.206 
L 104.045272 58.206 
L 105.385913 58.206 
L 106.726554 58.206 
L 108.067194 58.206 
L 109.407835 58.206 
L 110.748476 58.206 
L 112.089117 58.206 
L 113.429758 58.206 
L 114.770398 58.206 
L 116.111039 58.206 
L 117.45168 58.206 
L 118.792321 58.206 
L 120.132961 58.206 
L 121.473602 58.206 
L 122.814243 58.206 
L 124.154884 58.206 
L 125.495525 58.206 
L 126.836165 58.206 
L 128.176806 58.206 
L 129.517447 58.206 
L 130.858088 58.206 
L 132.198728 58.206 
L 133.539369 58.206 
L 134.88001 58.206 
L 136.220651 58.206 
L 136.220651 58.049149 
L 136.220651 58.049149 
L 134.88001 57.971591 
L 133.539369 57.860385 
L 132.198728 57.698316 
L 130.858088 57.472971 
L 129.517447 57.188212 
L 128.176806 56.868413 
L 126.836165 56.547931 
L 125.495525 56.251501 
L 124.154884 55.982329 
L 122.814243 55.726693 
L 121.473602 55.466674 
L 120.132961 55.189736 
L 118.792321 54.893451 
L 117.45168 54.586544 
L 116.111039 54.283215 
L 114.770398 53.991065 
L 113.429758 53.70262 
L 112.089117 53.400163 
L 110.748476 53.07017 
L 109.407835 52.712871 
L 108.067194 52.338816 
L 106.726554 51.961445 
L 105.385913 51.596582 
L 104.045272 51.261786 
L 102.704631 50.965017 
L 101.363991 50.693884 
L 100.02335 50.419872 
L 98.682709 50.104864 
L 97.342068 49.695488 
L 96.001428 49.125734 
L 94.660787 48.350152 
L 93.320146 47.380141 
L 91.979505 46.275733 
L 90.638864 45.094471 
L 89.298224 43.848934 
L 87.957583 42.514878 
L 86.616942 41.082675 
L 85.276301 39.603858 
L 83.935661 38.190934 
L 82.59502 36.980696 
L 81.254379 36.10226 
L 79.913738 35.656549 
L 78.573097 35.681563 
L 77.232457 36.117735 
L 75.891816 36.834749 
L 74.551175 37.732155 
L 73.210534 38.826093 
L 71.869894 40.226895 
L 70.529253 42.021071 
L 69.188612 44.165255 
L 67.847971 46.479891 
L 66.50733 48.736129 
L 65.16669 50.758659 
L 63.826049 52.472582 
L 62.485408 53.881595 
L 61.144767 55.018031 
L 59.804127 55.912056 
L 58.463486 56.592746 
L 57.122845 57.09759 
L 55.782204 57.46717 
L 54.441564 57.731194 
L 53.100923 57.905931 
L 51.760282 58.005513 
L 50.419641 58.051592 
L 49.079 58.070918 
L 47.73836 58.085579 
L 46.397719 58.106118 
L 45.057078 58.132194 
L 43.716437 58.158259 
L 42.375797 58.179212 
L 41.035156 58.193038 
L 39.694515 58.200508 
L 38.353874 58.203494 
L 37.013233 58.203397 
L 35.672593 58.20049 
L 34.331952 58.1943 
L 32.991311 58.184758 
L 31.65067 58.173323 
L 30.31003 58.163059 
L 28.969389 58.157387 
L 27.628748 58.158363 
L 26.288107 58.165627 
L 24.947466 58.176587 
L 23.606826 58.187748 
L 22.266185 58.196447 
L 20.925544 58.201818 
L 19.584903 58.204479 
L 18.244263 58.205542 
L 16.903622 58.205885 
L 15.562981 58.205968 
L 14.22234 58.205948 
L 12.881699 58.205784 
L 11.541059 58.205216 
L 10.200418 58.203657 
L 8.859777 58.200261 
L 7.519136 58.194482 
L 6.178496 58.187055 
L 4.837855 58.180463 
L 3.497214 58.177791 
z
" style="fill:#ffc022;fill-opacity:0.25;"/>
   </g>
   <g id="PolyCollection_3">
    <path clip-path="url(#p0f11a25522)" d="M 47.60132 57.955596 
L 47.60132 58.206 
L 48.609723 58.206 
L 49.618126 58.206 
L 50.626529 58.206 
L 51.634932 58.206 
L 52.643335 58.206 
L 53.651738 58.206 
L 54.66014 58.206 
L 55.668543 58.206 
L 56.676946 58.206 
L 57.685349 58.206 
L 58.693752 58.206 
L 59.702155 58.206 
L 60.710558 58.206 
L 61.718961 58.206 
L 62.727364 58.206 
L 63.735767 58.206 
L 64.74417 58.206 
L 65.752573 58.206 
L 66.760976 58.206 
L 67.769379 58.206 
L 68.777782 58.206 
L 69.786185 58.206 
L 70.794588 58.206 
L 71.802991 58.206 
L 72.811393 58.206 
L 73.819796 58.206 
L 74.828199 58.206 
L 75.836602 58.206 
L 76.845005 58.206 
L 77.853408 58.206 
L 78.861811 58.206 
L 79.870214 58.206 
L 80.878617 58.206 
L 81.88702 58.206 
L 82.895423 58.206 
L 83.903826 58.206 
L 84.912229 58.206 
L 85.920632 58.206 
L 86.929035 58.206 
L 87.937438 58.206 
L 88.945841 58.206 
L 89.954244 58.206 
L 90.962646 58.206 
L 91.971049 58.206 
L 92.979452 58.206 
L 93.987855 58.206 
L 94.996258 58.206 
L 96.004661 58.206 
L 97.013064 58.206 
L 98.021467 58.206 
L 99.02987 58.206 
L 100.038273 58.206 
L 101.046676 58.206 
L 102.055079 58.206 
L 103.063482 58.206 
L 104.071885 58.206 
L 105.080288 58.206 
L 106.088691 58.206 
L 107.097094 58.206 
L 108.105497 58.206 
L 109.113899 58.206 
L 110.122302 58.206 
L 111.130705 58.206 
L 112.139108 58.206 
L 113.147511 58.206 
L 114.155914 58.206 
L 115.164317 58.206 
L 116.17272 58.206 
L 117.181123 58.206 
L 118.189526 58.206 
L 119.197929 58.206 
L 120.206332 58.206 
L 121.214735 58.206 
L 122.223138 58.206 
L 123.231541 58.206 
L 124.239944 58.206 
L 125.248347 58.206 
L 126.25675 58.206 
L 127.265152 58.206 
L 128.273555 58.206 
L 129.281958 58.206 
L 130.290361 58.206 
L 131.298764 58.206 
L 132.307167 58.206 
L 133.31557 58.206 
L 134.323973 58.206 
L 135.332376 58.206 
L 136.340779 58.206 
L 137.349182 58.206 
L 138.357585 58.206 
L 139.365988 58.206 
L 140.374391 58.206 
L 141.382794 58.206 
L 142.391197 58.206 
L 143.3996 58.206 
L 144.408003 58.206 
L 145.416405 58.206 
L 146.424808 58.206 
L 147.433211 58.206 
L 147.433211 57.670255 
L 147.433211 57.670255 
L 146.424808 57.528292 
L 145.416405 57.36131 
L 144.408003 57.166786 
L 143.3996 56.942681 
L 142.391197 56.68809 
L 141.382794 56.403888 
L 140.374391 56.093184 
L 139.365988 55.761394 
L 138.357585 55.415842 
L 137.349182 55.064964 
L 136.340779 54.71729 
L 135.332376 54.38042 
L 134.323973 54.060216 
L 133.31557 53.760274 
L 132.307167 53.481676 
L 131.298764 53.22295 
L 130.290361 52.980197 
L 129.281958 52.747448 
L 128.273555 52.517328 
L 127.265152 52.282123 
L 126.25675 52.035157 
L 125.248347 51.772211 
L 124.239944 51.492598 
L 123.231541 51.199498 
L 122.223138 50.899389 
L 121.214735 50.600709 
L 120.206332 50.312167 
L 119.197929 50.04125 
L 118.189526 49.793347 
L 117.181123 49.571618 
L 116.17272 49.377427 
L 115.164317 49.210906 
L 114.155914 49.071263 
L 113.147511 48.956622 
L 112.139108 48.86353 
L 111.130705 48.786489 
L 110.122302 48.717987 
L 109.113899 48.649295 
L 108.105497 48.571985 
L 107.097094 48.479756 
L 106.088691 48.369938 
L 105.080288 48.244064 
L 104.071885 48.107214 
L 103.063482 47.966235 
L 102.055079 47.827355 
L 101.046676 47.693911 
L 100.038273 47.564863 
L 99.02987 47.434511 
L 98.021467 47.293482 
L 97.013064 47.130748 
L 96.004661 46.936202 
L 94.996258 46.703251 
L 93.987855 46.430919 
L 92.979452 46.125019 
L 91.971049 45.798154 
L 90.962646 45.468474 
L 89.954244 45.157407 
L 88.945841 44.88678 
L 87.937438 44.675915 
L 86.929035 44.539289 
L 85.920632 44.485208 
L 84.912229 44.515687 
L 83.903826 44.627412 
L 82.895423 44.813444 
L 81.88702 45.0652 
L 80.878617 45.374271 
L 79.870214 45.73375 
L 78.861811 46.138893 
L 77.853408 46.587079 
L 76.845005 47.077136 
L 75.836602 47.608199 
L 74.828199 48.178376 
L 73.819796 48.783535 
L 72.811393 49.416595 
L 71.802991 50.067553 
L 70.794588 50.724319 
L 69.786185 51.374154 
L 68.777782 52.005333 
L 67.769379 52.608565 
L 66.760976 53.177821 
L 65.752573 53.71041 
L 64.74417 54.206397 
L 63.735767 54.667582 
L 62.727364 55.096367 
L 61.718961 55.494751 
L 60.710558 55.863674 
L 59.702155 56.202787 
L 58.693752 56.510663 
L 57.685349 56.785356 
L 56.676946 57.025171 
L 55.668543 57.229416 
L 54.66014 57.398958 
L 53.651738 57.536425 
L 52.643335 57.646007 
L 51.634932 57.732929 
L 50.626529 57.802734 
L 49.618126 57.860559 
L 48.609723 57.91056 
L 47.60132 57.955596 
z
" style="fill:#f1caff;fill-opacity:0.25;"/>
   </g>
   <g id="matplotlib.axis_1">
    <g id="xtick_1">
     <g id="line2d_1">
      <defs>
       <path d="M 0 0 
L 0 4.8 
" id="m6a89e2e010" style="stroke:#000000;"/>
      </defs>
      <g>
       <use style="stroke:#000000;" x="38.03" xlink:href="#m6a89e2e010" y="58.206"/>
      </g>
     </g>
     <g id="text_1">
      <text style="font-family:Arial;font-size:8px;font-style:normal;font-weight:normal;text-anchor:middle;" transform="rotate(-0, 38.03, 72.23225)" x="38.03" y="72.23225">−0.5</text>
     </g>
    </g>
    <g id="xtick_2">
     <g id="line2d_2">
      <g>
       <use style="stroke:#000000;" x="71.848182" xlink:href="#m6a89e2e010" y="58.206"/>
      </g>
     </g>
     <g id="text_2">
      <text style="font-family:Arial;font-size:8px;font-style:normal;font-weight:normal;text-anchor:middle;" transform="rotate(-0, 71.848182, 72.23225)" x="71.848182" y="72.23225">0.0</text>
     </g>
    </g>
    <g id="xtick_3">
     <g id="line2d_3">
      <g>
       <use style="stroke:#000000;" x="105.666364" xlink:href="#m6a89e2e010" y="58.206"/>
      </g>
     </g>
     <g id="text_3">
      <text style="font-family:Arial;font-size:8px;font-style:normal;font-weight:normal;text-anchor:middle;" transform="rotate(-0, 105.666364, 72.23225)" x="105.666364" y="72.23225">0.5</text>
     </g>
    </g>
    <g id="xtick_4">
     <g id="line2d_4">
      <g>
       <use style="stroke:#000000;" x="139.484545" xlink:href="#m6a89e2e010" y="58.206"/>
      </g>
     </g>
     <g id="text_4">
      <text style="font-family:Arial;font-size:8px;font-style:normal;font-weight:normal;text-anchor:middle;" transform="rotate(-0, 139.484545, 72.23225)" x="139.484545" y="72.23225">1.0</text>
     </g>
    </g>
    <g id="text_5">
     <!-- $log_{10}(enrichment)$ -->
     <g transform="translate(57.99 83.90225)">
      <text>
       <tspan style="font-family:DejaVu Sans;font-size:8px;font-style:oblique;font-weight:oblique;" x="0 2.222656 7.117188 22.660937 27.582812 32.653125 35.942188 38.164844 42.563281 47.633594 55.426563 60.348438 65.41875" y="-0.921875">logenrichment</tspan>
       <tspan style="font-family:DejaVu Sans;font-size:5.6px;font-style:book;font-weight:book;" x="12.195312 15.758203" y="0.390625">10</tspan>
       <tspan style="font-family:DejaVu Sans;font-size:8px;font-style:book;font-weight:book;" x="19.539844 68.555469" y="-0.921875">()</tspan>
      </text>
     </g>
    </g>
   </g>
   <g id="matplotlib.axis_2">
    <g id="ytick_1">
     <g id="line2d_5">
      <defs>
       <path d="M 0 0 
L -4.8 0 
" id="m20e97f382c" style="stroke:#000000;"/>
      </defs>
      <g>
       <use style="stroke:#000000;" x="38.03" xlink:href="#m20e97f382c" y="58.206"/>
      </g>
     </g>
     <g id="text_6">
      <text style="font-family:Arial;font-size:8px;font-style:normal;font-weight:normal;text-anchor:end;" transform="rotate(-0, 29.73, 61.069125)" x="29.73" y="61.069125">0.0</text>
     </g>
    </g>
    <g id="ytick_2">
     <g id="line2d_6">
      <g>
       <use style="stroke:#000000;" x="38.03" xlink:href="#m20e97f382c" y="32.005998"/>
      </g>
     </g>
     <g id="text_7">
      <text style="font-family:Arial;font-size:8px;font-style:normal;font-weight:normal;text-anchor:end;" transform="rotate(-0, 29.73, 34.869123)" x="29.73" y="34.869123">2.5</text>
     </g>
    </g>
    <g id="text_8">
     <text style="font-family:Arial;font-size:8px;font-style:normal;font-weight:normal;text-anchor:middle;" transform="rotate(-90, 12.92625, 35.103)" x="12.92625" y="35.103">Density</text>
    </g>
   </g>
   <g id="line2d_7">
    <path clip-path="url(#p0f11a25522)" d="M -1 58.205621 
L -0.316607 58.205198 
L 0.950987 58.198227 
L 2.218582 58.190262 
L 3.486176 58.199346 
L 4.75377 58.205413 
L 6.021364 58.205989 
L 7.288958 58.205988 
L 8.556552 58.205387 
L 9.824146 58.1992 
L 11.091741 58.190248 
L 12.359335 58.19838 
L 13.626929 58.205135 
L 14.894523 58.202892 
L 16.162117 58.185047 
L 17.429711 58.176247 
L 18.697305 58.194805 
L 19.9649 58.185792 
L 21.232494 58.160204 
L 22.500088 58.15796 
L 23.767682 58.153807 
L 25.035276 58.127917 
L 26.30287 58.127588 
L 27.570465 58.156208 
L 28.838059 58.147548 
L 30.105653 58.105157 
L 31.373247 58.106837 
L 32.640841 58.144926 
L 33.908435 58.154206 
L 35.176029 58.161682 
L 36.443624 58.161153 
L 37.711218 58.188948 
L 38.978812 58.195907 
L 40.246406 58.175372 
L 41.514 58.16717 
L 42.781594 58.175498 
L 44.049188 58.13441 
L 45.316783 58.091144 
L 46.584377 58.085841 
L 47.851971 58.060491 
L 49.119565 57.981095 
L 50.387159 57.812671 
L 51.654753 57.688099 
L 52.922347 57.625836 
L 54.189942 57.477978 
L 55.457536 57.109902 
L 56.72513 56.676774 
L 57.992724 56.059716 
L 59.260318 54.992546 
L 60.527912 53.67788 
L 61.795506 51.975803 
L 63.063101 49.234197 
L 64.330695 45.686739 
L 65.598289 40.862159 
L 66.865883 35.04696 
L 68.133477 29.09108 
L 69.401071 23.84935 
L 70.668666 19.076098 
L 71.93626 15.358586 
L 73.203854 14.200286 
L 74.471448 15.513312 
L 75.739042 17.320376 
L 77.006636 19.907111 
L 78.27423 24.530377 
L 79.541825 30.33223 
L 80.809419 34.752726 
L 82.077013 38.369059 
L 83.344607 42.430239 
L 84.612201 46.545591 
L 85.879795 49.867824 
L 87.147389 51.966005 
L 88.414984 53.281746 
L 89.682578 54.550304 
L 90.950172 55.593285 
L 92.217766 56.437393 
L 93.48536 57.165151 
L 94.752954 57.604725 
L 96.020548 57.845622 
L 97.288143 57.90883 
L 98.555737 58.001966 
L 99.823331 58.009567 
L 101.090925 57.996221 
L 102.358519 58.094244 
L 103.626113 58.14652 
L 104.893707 58.160169 
L 106.161302 58.170667 
L 107.428896 58.164223 
L 108.69649 58.17572 
L 109.964084 58.18674 
L 111.231678 58.199924 
L 112.499272 58.205516 
L 113.766866 58.205305 
L 115.034461 58.198794 
L 116.302055 58.190232 
" style="fill:none;stroke:#804d00;stroke-linecap:square;stroke-width:1.2;"/>
   </g>
   <g id="line2d_8">
    <path clip-path="url(#p0f11a25522)" d="M 3.497214 58.177791 
L 4.837855 58.180463 
L 6.178496 58.187055 
L 7.519136 58.194482 
L 8.859777 58.200261 
L 10.200418 58.203657 
L 11.541059 58.205216 
L 12.881699 58.205784 
L 14.22234 58.205948 
L 15.562981 58.205968 
L 16.903622 58.205885 
L 18.244263 58.205542 
L 19.584903 58.204479 
L 20.925544 58.201818 
L 22.266185 58.196447 
L 23.606826 58.187748 
L 24.947466 58.176587 
L 26.288107 58.165627 
L 27.628748 58.158363 
L 28.969389 58.157387 
L 30.31003 58.163059 
L 31.65067 58.173323 
L 32.991311 58.184758 
L 34.331952 58.1943 
L 35.672593 58.20049 
L 37.013233 58.203397 
L 38.353874 58.203494 
L 39.694515 58.200508 
L 41.035156 58.193038 
L 42.375797 58.179212 
L 43.716437 58.158259 
L 45.057078 58.132194 
L 46.397719 58.106118 
L 47.73836 58.085579 
L 49.079 58.070918 
L 50.419641 58.051592 
L 51.760282 58.005513 
L 53.100923 57.905931 
L 54.441564 57.731194 
L 55.782204 57.46717 
L 57.122845 57.09759 
L 58.463486 56.592746 
L 59.804127 55.912056 
L 61.144767 55.018031 
L 62.485408 53.881595 
L 63.826049 52.472582 
L 65.16669 50.758659 
L 66.50733 48.736129 
L 67.847971 46.479891 
L 69.188612 44.165255 
L 70.529253 42.021071 
L 71.869894 40.226895 
L 73.210534 38.826093 
L 74.551175 37.732155 
L 75.891816 36.834749 
L 77.232457 36.117735 
L 78.573097 35.681563 
L 79.913738 35.656549 
L 81.254379 36.10226 
L 82.59502 36.980696 
L 83.935661 38.190934 
L 85.276301 39.603858 
L 86.616942 41.082675 
L 87.957583 42.514878 
L 89.298224 43.848934 
L 90.638864 45.094471 
L 91.979505 46.275733 
L 93.320146 47.380141 
L 94.660787 48.350152 
L 96.001428 49.125734 
L 97.342068 49.695488 
L 98.682709 50.104864 
L 100.02335 50.419872 
L 101.363991 50.693884 
L 102.704631 50.965017 
L 104.045272 51.261786 
L 105.385913 51.596582 
L 106.726554 51.961445 
L 108.067194 52.338816 
L 109.407835 52.712871 
L 110.748476 53.07017 
L 112.089117 53.400163 
L 113.429758 53.70262 
L 114.770398 53.991065 
L 116.111039 54.283215 
L 117.45168 54.586544 
L 118.792321 54.893451 
L 120.132961 55.189736 
L 121.473602 55.466674 
L 122.814243 55.726693 
L 124.154884 55.982329 
L 125.495525 56.251501 
L 126.836165 56.547931 
L 128.176806 56.868413 
L 129.517447 57.188212 
L 130.858088 57.472971 
L 132.198728 57.698316 
L 133.539369 57.860385 
L 134.88001 57.971591 
L 136.220651 58.049149 
" style="fill:none;stroke:#ffc022;stroke-linecap:square;stroke-width:1.2;"/>
   </g>
   <g id="line2d_9">
    <path clip-path="url(#p0f11a25522)" d="M 47.60132 57.955596 
L 48.609723 57.91056 
L 49.618126 57.860559 
L 50.626529 57.802734 
L 51.634932 57.732929 
L 52.643335 57.646007 
L 53.651738 57.536425 
L 54.66014 57.398958 
L 55.668543 57.229416 
L 56.676946 57.025171 
L 57.685349 56.785356 
L 58.693752 56.510663 
L 59.702155 56.202787 
L 60.710558 55.863674 
L 61.718961 55.494751 
L 62.727364 55.096367 
L 63.735767 54.667582 
L 64.74417 54.206397 
L 65.752573 53.71041 
L 66.760976 53.177821 
L 67.769379 52.608565 
L 68.777782 52.005333 
L 69.786185 51.374154 
L 70.794588 50.724319 
L 71.802991 50.067553 
L 72.811393 49.416595 
L 73.819796 48.783535 
L 74.828199 48.178376 
L 75.836602 47.608199 
L 76.845005 47.077136 
L 77.853408 46.587079 
L 78.861811 46.138893 
L 79.870214 45.73375 
L 80.878617 45.374271 
L 81.88702 45.0652 
L 82.895423 44.813444 
L 83.903826 44.627412 
L 84.912229 44.515687 
L 85.920632 44.485208 
L 86.929035 44.539289 
L 87.937438 44.675915 
L 88.945841 44.88678 
L 89.954244 45.157407 
L 90.962646 45.468474 
L 91.971049 45.798154 
L 92.979452 46.125019 
L 93.987855 46.430919 
L 94.996258 46.703251 
L 96.004661 46.936202 
L 97.013064 47.130748 
L 98.021467 47.293482 
L 99.02987 47.434511 
L 100.038273 47.564863 
L 101.046676 47.693911 
L 102.055079 47.827355 
L 103.063482 47.966235 
L 104.071885 48.107214 
L 105.080288 48.244064 
L 106.088691 48.369938 
L 107.097094 48.479756 
L 108.105497 48.571985 
L 109.113899 48.649295 
L 110.122302 48.717987 
L 111.130705 48.786489 
L 112.139108 48.86353 
L 113.147511 48.956622 
L 114.155914 49.071263 
L 115.164317 49.210906 
L 116.17272 49.377427 
L 117.181123 49.571618 
L 118.189526 49.793347 
L 119.197929 50.04125 
L 120.206332 50.312167 
L 121.214735 50.600709 
L 122.223138 50.899389 
L 123.231541 51.199498 
L 124.239944 51.492598 
L 125.248347 51.772211 
L 126.25675 52.035157 
L 127.265152 52.282123 
L 128.273555 52.517328 
L 129.281958 52.747448 
L 130.290361 52.980197 
L 131.298764 53.22295 
L 132.307167 53.481676 
L 133.31557 53.760274 
L 134.323973 54.060216 
L 135.332376 54.38042 
L 136.340779 54.71729 
L 137.349182 55.064964 
L 138.357585 55.415842 
L 139.365988 55.761394 
L 140.374391 56.093184 
L 141.382794 56.403888 
L 142.391197 56.68809 
L 143.3996 56.942681 
L 144.408003 57.166786 
L 145.416405 57.36131 
L 146.424808 57.528292 
L 147.433211 57.670255 
" style="fill:none;stroke:#f1caff;stroke-linecap:square;stroke-width:1.2;"/>
   </g>
   <g id="patch_3">
    <path d="M 38.03 58.206 
L 38.03 12 
" style="fill:none;stroke:#000000;stroke-linecap:square;stroke-linejoin:miter;"/>
   </g>
   <g id="patch_4">
    <path d="M 149.63 58.206 
L 149.63 12 
" style="fill:none;stroke:#000000;stroke-linecap:square;stroke-linejoin:miter;"/>
   </g>
   <g id="patch_5">
    <path d="M 38.03 58.206 
L 149.63 58.206 
" style="fill:none;stroke:#000000;stroke-linecap:square;stroke-linejoin:miter;"/>
   </g>
   <g id="patch_6">
    <path d="M 38.03 12 
L 149.63 12 
" style="fill:none;stroke:#000000;stroke-linecap:square;stroke-linejoin:miter;"/>
   </g>
   <g id="text_9">
    <text style="fill:#804d00;font-family:DejaVu Sans;font-size:8px;font-style:normal;font-weight:normal;text-anchor:start;" transform="rotate(-0, 76.920909, 18.905997)" x="76.920909" y="18.905997">RING1B-</text>
   </g>
   <g id="text_10">
    <text style="fill:#ffc022;font-family:DejaVu Sans;font-size:8px;font-style:normal;font-weight:normal;text-anchor:start;" transform="rotate(-0, 81.993636, 32.005998)" x="81.993636" y="32.005998">RING1B+</text>
   </g>
   <g id="text_11">
    <text style="fill:#f1caff;font-family:DejaVu Sans;font-size:8px;font-style:normal;font-weight:normal;" transform="translate(109.048182 38.767749)">RING1B</text>
    <text style="fill:#f1caff;font-family:DejaVu Sans;font-size:8px;font-style:normal;font-weight:normal;" transform="translate(109.048182 47.725999)">+H3K27+</text>
   </g>
  </g>
 </g>
 <defs>
  <clipPath id="p0f11a25522">
   <rect height="46.206" width="111.6" x="38.03" y="12"/>
  </clipPath>
 </defs>
</svg>
