<?xml version="1.0" encoding="utf-8" standalone="no"?>
<!DOCTYPE svg PUBLIC "-//W3C//DTD SVG 1.1//EN"
  "http://www.w3.org/Graphics/SVG/1.1/DTD/svg11.dtd">
<!-- Created with matplotlib (https://matplotlib.org/) -->
<svg height="87.98225pt" version="1.1" viewBox="0 0 198.68 87.98225" width="198.68pt" xmlns="http://www.w3.org/2000/svg" xmlns:xlink="http://www.w3.org/1999/xlink">
 <defs>
  <style type="text/css">
*{stroke-linecap:butt;stroke-linejoin:round;}
  </style>
 </defs>
 <g id="figure_1">
  <g id="patch_1">
   <path d="M 0 87.98225 
L 198.68 87.98225 
L 198.68 -0 
L 0 -0 
z
" style="fill:#ffffff;"/>
  </g>
  <g id="axes_1">
   <g id="patch_2">
    <path d="M 38.03 53.406 
L 191.48 53.406 
L 191.48 7.2 
L 38.03 7.2 
z
" style="fill:#ffffff;"/>
   </g>
   <g id="PolyCollection_1">
    <path clip-path="url(#p4b795f89c9)" d="M -26.897178 53.396549 
L -26.897178 53.406 
L -25.538507 53.406 
L -24.179835 53.406 
L -22.821164 53.406 
L -21.462493 53.406 
L -20.103821 53.406 
L -18.74515 53.406 
L -17.386479 53.406 
L -16.027808 53.406 
L -14.669136 53.406 
L -13.310465 53.406 
L -11.951794 53.406 
L -10.593122 53.406 
L -9.234451 53.406 
L -7.87578 53.406 
L -6.517109 53.406 
L -5.158437 53.406 
L -3.799766 53.406 
L -2.441095 53.406 
L -1.082423 53.406 
L 0.276248 53.406 
L 1.634919 53.406 
L 2.99359 53.406 
L 4.352262 53.406 
L 5.710933 53.406 
L 7.069604 53.406 
L 8.428276 53.406 
L 9.786947 53.406 
L 11.145618 53.406 
L 12.504289 53.406 
L 13.862961 53.406 
L 15.221632 53.406 
L 16.580303 53.406 
L 17.938975 53.406 
L 19.297646 53.406 
L 20.656317 53.406 
L 22.014988 53.406 
L 23.37366 53.406 
L 24.732331 53.406 
L 26.091002 53.406 
L 27.449674 53.406 
L 28.808345 53.406 
L 30.167016 53.406 
L 31.525687 53.406 
L 32.884359 53.406 
L 34.24303 53.406 
L 35.601701 53.406 
L 36.960373 53.406 
L 38.319044 53.406 
L 39.677715 53.406 
L 41.036386 53.406 
L 42.395058 53.406 
L 43.753729 53.406 
L 45.1124 53.406 
L 46.471072 53.406 
L 47.829743 53.406 
L 49.188414 53.406 
L 50.547085 53.406 
L 51.905757 53.406 
L 53.264428 53.406 
L 54.623099 53.406 
L 55.981771 53.406 
L 57.340442 53.406 
L 58.699113 53.406 
L 60.057784 53.406 
L 61.416456 53.406 
L 62.775127 53.406 
L 64.133798 53.406 
L 65.49247 53.406 
L 66.851141 53.406 
L 68.209812 53.406 
L 69.568483 53.406 
L 70.927155 53.406 
L 72.285826 53.406 
L 73.644497 53.406 
L 75.003169 53.406 
L 76.36184 53.406 
L 77.720511 53.406 
L 79.079182 53.406 
L 80.437854 53.406 
L 81.796525 53.406 
L 83.155196 53.406 
L 84.513867 53.406 
L 85.872539 53.406 
L 87.23121 53.406 
L 88.589881 53.406 
L 89.948553 53.406 
L 91.307224 53.406 
L 92.665895 53.406 
L 94.024566 53.406 
L 95.383238 53.406 
L 96.741909 53.406 
L 98.10058 53.406 
L 99.459252 53.406 
L 100.817923 53.406 
L 102.176594 53.406 
L 103.535265 53.406 
L 104.893937 53.406 
L 106.252608 53.406 
L 107.611279 53.406 
L 108.969951 53.406 
L 110.328622 53.406 
L 111.687293 53.406 
L 113.045964 53.406 
L 114.404636 53.406 
L 115.763307 53.406 
L 117.121978 53.406 
L 118.48065 53.406 
L 119.839321 53.406 
L 121.197992 53.406 
L 122.556663 53.406 
L 123.915335 53.406 
L 125.274006 53.406 
L 126.632677 53.406 
L 127.991349 53.406 
L 129.35002 53.406 
L 130.708691 53.406 
L 132.067362 53.406 
L 133.426034 53.406 
L 134.784705 53.406 
L 136.143376 53.406 
L 137.502048 53.406 
L 138.860719 53.406 
L 140.21939 53.406 
L 141.578061 53.406 
L 142.936733 53.406 
L 144.295404 53.406 
L 145.654075 53.406 
L 145.654075 53.387472 
L 145.654075 53.387472 
L 144.295404 53.396548 
L 142.936733 53.404612 
L 141.578061 53.405851 
L 140.21939 53.405358 
L 138.860719 53.401033 
L 137.502048 53.391459 
L 136.143376 53.382351 
L 134.784705 53.371851 
L 133.426034 53.363367 
L 132.067362 53.369638 
L 130.708691 53.368998 
L 129.35002 53.352801 
L 127.991349 53.348226 
L 126.632677 53.308281 
L 125.274006 53.215564 
L 123.915335 53.176691 
L 122.556663 53.228872 
L 121.197992 53.207588 
L 119.839321 53.11216 
L 118.48065 53.087018 
L 117.121978 52.99411 
L 115.763307 52.754194 
L 114.404636 52.419804 
L 113.045964 51.882585 
L 111.687293 51.246795 
L 110.328622 50.566054 
L 108.969951 49.700473 
L 107.611279 48.709326 
L 106.252608 47.742101 
L 104.893937 46.538686 
L 103.535265 44.677672 
L 102.176594 42.027927 
L 100.817923 38.804509 
L 99.459252 35.59031 
L 98.10058 32.524845 
L 96.741909 29.834342 
L 95.383238 26.495447 
L 94.024566 22.053047 
L 92.665895 17.61115 
L 91.307224 14.465629 
L 89.948553 12.71451 
L 88.589881 11.331396 
L 87.23121 9.960533 
L 85.872539 9.400286 
L 84.513867 10.822309 
L 83.155196 13.714728 
L 81.796525 17.337829 
L 80.437854 21.227007 
L 79.079182 25.468324 
L 77.720511 30.189176 
L 76.36184 34.765837 
L 75.003169 38.910897 
L 73.644497 42.158415 
L 72.285826 44.78441 
L 70.927155 46.93999 
L 69.568483 48.381257 
L 68.209812 49.504544 
L 66.851141 50.47015 
L 65.49247 51.271715 
L 64.133798 51.779543 
L 62.775127 52.120273 
L 61.416456 52.448115 
L 60.057784 52.719291 
L 58.699113 52.824195 
L 57.340442 52.858909 
L 55.981771 52.93168 
L 54.623099 53.048948 
L 53.264428 53.188274 
L 51.905757 53.259015 
L 50.547085 53.279894 
L 49.188414 53.287596 
L 47.829743 53.290142 
L 46.471072 53.327065 
L 45.1124 53.372503 
L 43.753729 53.376444 
L 42.395058 53.364354 
L 41.036386 53.373916 
L 39.677715 53.394257 
L 38.319044 53.398418 
L 36.960373 53.379064 
L 35.601701 53.356917 
L 34.24303 53.362137 
L 32.884359 53.358897 
L 31.525687 53.350105 
L 30.167016 53.341635 
L 28.808345 53.303608 
L 27.449674 53.294134 
L 26.091002 53.335414 
L 24.732331 53.35741 
L 23.37366 53.356392 
L 22.014988 53.326117 
L 20.656317 53.318839 
L 19.297646 53.3455 
L 17.938975 53.358075 
L 16.580303 53.358536 
L 15.221632 53.356827 
L 13.862961 53.374628 
L 12.504289 53.394922 
L 11.145618 53.392617 
L 9.786947 53.376456 
L 8.428276 53.379527 
L 7.069604 53.396512 
L 5.710933 53.404658 
L 4.352262 53.40509 
L 2.99359 53.400001 
L 1.634919 53.391358 
L 0.276248 53.392663 
L -1.082423 53.401158 
L -2.441095 53.405343 
L -3.799766 53.405962 
L -5.158437 53.406 
L -6.517109 53.405957 
L -7.87578 53.405273 
L -9.234451 53.400727 
L -10.593122 53.392175 
L -11.951794 53.391846 
L -13.310465 53.400431 
L -14.669136 53.405229 
L -16.027808 53.40595 
L -17.386479 53.406 
L -18.74515 53.405993 
L -20.103821 53.406 
L -21.462493 53.405987 
L -22.821164 53.406 
L -24.179835 53.405891 
L -25.538507 53.404609 
L -26.897178 53.396549 
z
" style="fill:#804d00;fill-opacity:0.25;"/>
   </g>
   <g id="PolyCollection_2">
    <path clip-path="url(#p4b795f89c9)" d="M -9.452581 53.294767 
L -9.452581 53.406 
L -8.015614 53.406 
L -6.578648 53.406 
L -5.141682 53.406 
L -3.704715 53.406 
L -2.267749 53.406 
L -0.830783 53.406 
L 0.606184 53.406 
L 2.04315 53.406 
L 3.480116 53.406 
L 4.917083 53.406 
L 6.354049 53.406 
L 7.791015 53.406 
L 9.227982 53.406 
L 10.664948 53.406 
L 12.101914 53.406 
L 13.538881 53.406 
L 14.975847 53.406 
L 16.412814 53.406 
L 17.84978 53.406 
L 19.286746 53.406 
L 20.723713 53.406 
L 22.160679 53.406 
L 23.597645 53.406 
L 25.034612 53.406 
L 26.471578 53.406 
L 27.908544 53.406 
L 29.345511 53.406 
L 30.782477 53.406 
L 32.219443 53.406 
L 33.65641 53.406 
L 35.093376 53.406 
L 36.530342 53.406 
L 37.967309 53.406 
L 39.404275 53.406 
L 40.841241 53.406 
L 42.278208 53.406 
L 43.715174 53.406 
L 45.15214 53.406 
L 46.589107 53.406 
L 48.026073 53.406 
L 49.463039 53.406 
L 50.900006 53.406 
L 52.336972 53.406 
L 53.773938 53.406 
L 55.210905 53.406 
L 56.647871 53.406 
L 58.084837 53.406 
L 59.521804 53.406 
L 60.95877 53.406 
L 62.395736 53.406 
L 63.832703 53.406 
L 65.269669 53.406 
L 66.706635 53.406 
L 68.143602 53.406 
L 69.580568 53.406 
L 71.017534 53.406 
L 72.454501 53.406 
L 73.891467 53.406 
L 75.328434 53.406 
L 76.7654 53.406 
L 78.202366 53.406 
L 79.639333 53.406 
L 81.076299 53.406 
L 82.513265 53.406 
L 83.950232 53.406 
L 85.387198 53.406 
L 86.824164 53.406 
L 88.261131 53.406 
L 89.698097 53.406 
L 91.135063 53.406 
L 92.57203 53.406 
L 94.008996 53.406 
L 95.445962 53.406 
L 96.882929 53.406 
L 98.319895 53.406 
L 99.756861 53.406 
L 101.193828 53.406 
L 102.630794 53.406 
L 104.06776 53.406 
L 105.504727 53.406 
L 106.941693 53.406 
L 108.378659 53.406 
L 109.815626 53.406 
L 111.252592 53.406 
L 112.689558 53.406 
L 114.126525 53.406 
L 115.563491 53.406 
L 117.000457 53.406 
L 118.437424 53.406 
L 119.87439 53.406 
L 121.311356 53.406 
L 122.748323 53.406 
L 124.185289 53.406 
L 125.622255 53.406 
L 127.059222 53.406 
L 128.496188 53.406 
L 129.933155 53.406 
L 131.370121 53.406 
L 132.807087 53.406 
L 134.244054 53.406 
L 135.68102 53.406 
L 137.117986 53.406 
L 138.554953 53.406 
L 139.991919 53.406 
L 141.428885 53.406 
L 142.865852 53.406 
L 144.302818 53.406 
L 145.739784 53.406 
L 147.176751 53.406 
L 148.613717 53.406 
L 150.050683 53.406 
L 151.48765 53.406 
L 152.924616 53.406 
L 154.361582 53.406 
L 155.798549 53.406 
L 157.235515 53.406 
L 158.672481 53.406 
L 160.109448 53.406 
L 161.546414 53.406 
L 162.98338 53.406 
L 164.420347 53.406 
L 165.857313 53.406 
L 167.294279 53.406 
L 168.731246 53.406 
L 170.168212 53.406 
L 171.605178 53.406 
L 173.042145 53.406 
L 173.042145 53.249316 
L 173.042145 53.249316 
L 171.605178 53.191497 
L 170.168212 53.115585 
L 168.731246 53.013569 
L 167.294279 52.877253 
L 165.857313 52.701655 
L 164.420347 52.488451 
L 162.98338 52.247503 
L 161.546414 51.994742 
L 160.109448 51.746639 
L 158.672481 51.514084 
L 157.235515 51.299278 
L 155.798549 51.097052 
L 154.361582 50.898871 
L 152.924616 50.696579 
L 151.48765 50.484496 
L 150.050683 50.26041 
L 148.613717 50.02615 
L 147.176751 49.787218 
L 145.739784 49.550495 
L 144.302818 49.320423 
L 142.865852 49.095886 
L 141.428885 48.870154 
L 139.991919 48.63428 
L 138.554953 48.381838 
L 137.117986 48.111813 
L 135.68102 47.828014 
L 134.244054 47.536387 
L 132.807087 47.243276 
L 131.370121 46.955865 
L 129.933155 46.682559 
L 128.496188 46.430498 
L 127.059222 46.201103 
L 125.622255 45.987782 
L 124.185289 45.777849 
L 122.748323 45.555404 
L 121.311356 45.30077 
L 119.87439 44.987567 
L 118.437424 44.584074 
L 117.000457 44.062972 
L 115.563491 43.414465 
L 114.126525 42.652203 
L 112.689558 41.806007 
L 111.252592 40.905715 
L 109.815626 39.966695 
L 108.378659 38.985853 
L 106.941693 37.950351 
L 105.504727 36.854103 
L 104.06776 35.712505 
L 102.630794 34.566717 
L 101.193828 33.476141 
L 99.756861 32.506158 
L 98.319895 31.71918 
L 96.882929 31.169557 
L 95.445962 30.896106 
L 94.008996 30.909506 
L 92.57203 31.182577 
L 91.135063 31.656652 
L 89.698097 32.26812 
L 88.261131 32.982199 
L 86.824164 33.8119 
L 85.387198 34.808145 
L 83.950232 36.025834 
L 82.513265 37.485596 
L 81.076299 39.152201 
L 79.639333 40.939567 
L 78.202366 42.737372 
L 76.7654 44.444222 
L 75.328434 45.991539 
L 73.891467 47.349855 
L 72.454501 48.519528 
L 71.017534 49.514927 
L 69.580568 50.351946 
L 68.143602 51.04394 
L 66.706635 51.604375 
L 65.269669 52.050243 
L 63.832703 52.401421 
L 62.395736 52.6763 
L 60.95877 52.887883 
L 59.521804 53.043859 
L 58.084837 53.150204 
L 56.647871 53.215003 
L 55.210905 53.24963 
L 53.773938 53.266949 
L 52.336972 53.278251 
L 50.900006 53.29088 
L 49.463039 53.307604 
L 48.026073 53.327613 
L 46.589107 53.348299 
L 45.15214 53.366954 
L 43.715174 53.381803 
L 42.278208 53.392303 
L 40.841241 53.398875 
L 39.404275 53.402397 
L 37.967309 53.403702 
L 36.530342 53.403263 
L 35.093376 53.40112 
L 33.65641 53.397045 
L 32.219443 53.390873 
L 30.782477 53.382877 
L 29.345511 53.373989 
L 27.908544 53.365702 
L 26.471578 53.359684 
L 25.034612 53.357251 
L 23.597645 53.358957 
L 22.160679 53.364416 
L 20.723713 53.372424 
L 19.286746 53.38134 
L 17.84978 53.3896 
L 16.412814 53.39617 
L 14.975847 53.40071 
L 13.538881 53.403453 
L 12.101914 53.404905 
L 10.664948 53.405581 
L 9.227982 53.405857 
L 7.791015 53.405955 
L 6.354049 53.405981 
L 4.917083 53.405966 
L 3.480116 53.405885 
L 2.04315 53.40562 
L 0.606184 53.40488 
L -0.830783 53.403057 
L -2.267749 53.399096 
L -3.704715 53.39148 
L -5.141682 53.378467 
L -6.578648 53.358552 
L -8.015614 53.330822 
L -9.452581 53.294767 
z
" style="fill:#ffc022;fill-opacity:0.25;"/>
   </g>
   <g id="PolyCollection_3">
    <path clip-path="url(#p4b795f89c9)" d="M 51.190565 52.75579 
L 51.190565 53.406 
L 52.271422 53.406 
L 53.352279 53.406 
L 54.433136 53.406 
L 55.513993 53.406 
L 56.59485 53.406 
L 57.675707 53.406 
L 58.756564 53.406 
L 59.837422 53.406 
L 60.918279 53.406 
L 61.999136 53.406 
L 63.079993 53.406 
L 64.16085 53.406 
L 65.241707 53.406 
L 66.322564 53.406 
L 67.403421 53.406 
L 68.484278 53.406 
L 69.565135 53.406 
L 70.645993 53.406 
L 71.72685 53.406 
L 72.807707 53.406 
L 73.888564 53.406 
L 74.969421 53.406 
L 76.050278 53.406 
L 77.131135 53.406 
L 78.211992 53.406 
L 79.292849 53.406 
L 80.373706 53.406 
L 81.454563 53.406 
L 82.535421 53.406 
L 83.616278 53.406 
L 84.697135 53.406 
L 85.777992 53.406 
L 86.858849 53.406 
L 87.939706 53.406 
L 89.020563 53.406 
L 90.10142 53.406 
L 91.182277 53.406 
L 92.263134 53.406 
L 93.343991 53.406 
L 94.424849 53.406 
L 95.505706 53.406 
L 96.586563 53.406 
L 97.66742 53.406 
L 98.748277 53.406 
L 99.829134 53.406 
L 100.909991 53.406 
L 101.990848 53.406 
L 103.071705 53.406 
L 104.152562 53.406 
L 105.233419 53.406 
L 106.314277 53.406 
L 107.395134 53.406 
L 108.475991 53.406 
L 109.556848 53.406 
L 110.637705 53.406 
L 111.718562 53.406 
L 112.799419 53.406 
L 113.880276 53.406 
L 114.961133 53.406 
L 116.04199 53.406 
L 117.122848 53.406 
L 118.203705 53.406 
L 119.284562 53.406 
L 120.365419 53.406 
L 121.446276 53.406 
L 122.527133 53.406 
L 123.60799 53.406 
L 124.688847 53.406 
L 125.769704 53.406 
L 126.850561 53.406 
L 127.931418 53.406 
L 129.012276 53.406 
L 130.093133 53.406 
L 131.17399 53.406 
L 132.254847 53.406 
L 133.335704 53.406 
L 134.416561 53.406 
L 135.497418 53.406 
L 136.578275 53.406 
L 137.659132 53.406 
L 138.739989 53.406 
L 139.820846 53.406 
L 140.901704 53.406 
L 141.982561 53.406 
L 143.063418 53.406 
L 144.144275 53.406 
L 145.225132 53.406 
L 146.305989 53.406 
L 147.386846 53.406 
L 148.467703 53.406 
L 149.54856 53.406 
L 150.629417 53.406 
L 151.710274 53.406 
L 152.791132 53.406 
L 153.871989 53.406 
L 154.952846 53.406 
L 156.033703 53.406 
L 157.11456 53.406 
L 158.195417 53.406 
L 159.276274 53.406 
L 160.357131 53.406 
L 161.437988 53.406 
L 162.518845 53.406 
L 163.599703 53.406 
L 164.68056 53.406 
L 165.761417 53.406 
L 166.842274 53.406 
L 167.923131 53.406 
L 169.003988 53.406 
L 170.084845 53.406 
L 171.165702 53.406 
L 172.246559 53.406 
L 173.327416 53.406 
L 174.408273 53.406 
L 175.489131 53.406 
L 176.569988 53.406 
L 177.650845 53.406 
L 178.731702 53.406 
L 179.812559 53.406 
L 180.893416 53.406 
L 181.974273 53.406 
L 183.05513 53.406 
L 184.135987 53.406 
L 185.216844 53.406 
L 186.297701 53.406 
L 187.378559 53.406 
L 188.459416 53.406 
L 188.459416 52.690276 
L 188.459416 52.690276 
L 187.378559 52.606768 
L 186.297701 52.504658 
L 185.216844 52.383326 
L 184.135987 52.242279 
L 183.05513 52.081311 
L 181.974273 51.900649 
L 180.893416 51.701084 
L 179.812559 51.484048 
L 178.731702 51.251642 
L 177.650845 51.006583 
L 176.569988 50.752092 
L 175.489131 50.491716 
L 174.408273 50.229118 
L 173.327416 49.967845 
L 172.246559 49.711103 
L 171.165702 49.461571 
L 170.084845 49.221239 
L 169.003988 48.991312 
L 167.923131 48.772151 
L 166.842274 48.563272 
L 165.761417 48.363397 
L 164.68056 48.170552 
L 163.599703 47.982232 
L 162.518845 47.795622 
L 161.437988 47.607862 
L 160.357131 47.416349 
L 159.276274 47.219037 
L 158.195417 47.014691 
L 157.11456 46.803064 
L 156.033703 46.584954 
L 154.952846 46.362137 
L 153.871989 46.137178 
L 152.791132 45.913154 
L 151.710274 45.693332 
L 150.629417 45.480871 
L 149.54856 45.278568 
L 148.467703 45.0887 
L 147.386846 44.91295 
L 146.305989 44.752407 
L 145.225132 44.607607 
L 144.144275 44.478568 
L 143.063418 44.364816 
L 141.982561 44.265366 
L 140.901704 44.178691 
L 139.820846 44.102704 
L 138.739989 44.034782 
L 137.659132 43.971879 
L 136.578275 43.910725 
L 135.497418 43.848114 
L 134.416561 43.781237 
L 133.335704 43.707989 
L 132.254847 43.627214 
L 131.17399 43.538797 
L 130.093133 43.443596 
L 129.012276 43.343197 
L 127.931418 43.239534 
L 126.850561 43.134432 
L 125.769704 43.029158 
L 124.688847 42.924054 
L 123.60799 42.818321 
L 122.527133 42.709993 
L 121.446276 42.596119 
L 120.365419 42.473122 
L 119.284562 42.337292 
L 118.203705 42.185349 
L 117.122848 42.015009 
L 116.04199 41.825468 
L 114.961133 41.617752 
L 113.880276 41.394879 
L 112.799419 41.161816 
L 111.718562 40.925222 
L 110.637705 40.693009 
L 109.556848 40.473769 
L 108.475991 40.276129 
L 107.395134 40.108113 
L 106.314277 39.976594 
L 105.233419 39.886875 
L 104.152562 39.84246 
L 103.071705 39.845014 
L 101.990848 39.894517 
L 100.909991 39.989549 
L 99.829134 40.127681 
L 98.748277 40.305899 
L 97.66742 40.521003 
L 96.586563 40.769949 
L 95.505706 41.050081 
L 94.424849 41.359244 
L 93.343991 41.695777 
L 92.263134 42.058389 
L 91.182277 42.445955 
L 90.10142 42.857257 
L 89.020563 43.290715 
L 87.939706 43.744163 
L 86.858849 44.214699 
L 85.777992 44.698643 
L 84.697135 45.19162 
L 83.616278 45.688759 
L 82.535421 46.184972 
L 81.454563 46.675286 
L 80.373706 47.155158 
L 79.292849 47.62075 
L 78.211992 48.069097 
L 77.131135 48.498179 
L 76.050278 48.90687 
L 74.969421 49.294802 
L 73.888564 49.66216 
L 72.807707 50.009444 
L 71.72685 50.337247 
L 70.645993 50.646055 
L 69.565135 50.936118 
L 68.484278 51.207381 
L 67.403421 51.459492 
L 66.322564 51.691861 
L 65.241707 51.903773 
L 64.16085 52.094515 
L 63.079993 52.263504 
L 61.999136 52.410393 
L 60.918279 52.535129 
L 59.837422 52.637976 
L 58.756564 52.719474 
L 57.675707 52.780374 
L 56.59485 52.821534 
L 55.513993 52.84381 
L 54.433136 52.847951 
L 53.352279 52.834509 
L 52.271422 52.803783 
L 51.190565 52.75579 
z
" style="fill:#f1caff;fill-opacity:0.25;"/>
   </g>
   <g id="matplotlib.axis_1">
    <g id="xtick_1">
     <g id="line2d_1">
      <defs>
       <path d="M 0 0 
L 0 4.8 
" id="m90ed5a071a" style="stroke:#000000;"/>
      </defs>
      <g>
       <use style="stroke:#000000;" x="38.03" xlink:href="#m90ed5a071a" y="53.406"/>
      </g>
     </g>
     <g id="text_1">
      <text style="font-family:Arial;font-size:8px;font-style:normal;font-weight:normal;text-anchor:middle;" transform="rotate(-0, 38.03, 67.43225)" x="38.03" y="67.43225">−0.5</text>
     </g>
    </g>
    <g id="xtick_2">
     <g id="line2d_2">
      <g>
       <use style="stroke:#000000;" x="84.53" xlink:href="#m90ed5a071a" y="53.406"/>
      </g>
     </g>
     <g id="text_2">
      <text style="font-family:Arial;font-size:8px;font-style:normal;font-weight:normal;text-anchor:middle;" transform="rotate(-0, 84.53, 67.43225)" x="84.53" y="67.43225">0.0</text>
     </g>
    </g>
    <g id="xtick_3">
     <g id="line2d_3">
      <g>
       <use style="stroke:#000000;" x="131.03" xlink:href="#m90ed5a071a" y="53.406"/>
      </g>
     </g>
     <g id="text_3">
      <text style="font-family:Arial;font-size:8px;font-style:normal;font-weight:normal;text-anchor:middle;" transform="rotate(-0, 131.03, 67.43225)" x="131.03" y="67.43225">0.5</text>
     </g>
    </g>
    <g id="xtick_4">
     <g id="line2d_4">
      <g>
       <use style="stroke:#000000;" x="177.53" xlink:href="#m90ed5a071a" y="53.406"/>
      </g>
     </g>
     <g id="text_4">
      <text style="font-family:Arial;font-size:8px;font-style:normal;font-weight:normal;text-anchor:middle;" transform="rotate(-0, 177.53, 67.43225)" x="177.53" y="67.43225">1.0</text>
     </g>
    </g>
    <g id="text_5">
     <!-- $log_{10}(enrichment)$ -->
     <g transform="translate(78.915 79.10225)">
      <text>
       <tspan style="font-family:DejaVu Sans;font-size:8px;font-style:oblique;font-weight:oblique;" x="0 2.222656 7.117188 22.660937 27.582812 32.653125 35.942188 38.164844 42.563281 47.633594 55.426563 60.348438 65.41875" y="-0.921875">logenrichment</tspan>
       <tspan style="font-family:DejaVu Sans;font-size:5.6px;font-style:book;font-weight:book;" x="12.195312 15.758203" y="0.390625">10</tspan>
       <tspan style="font-family:DejaVu Sans;font-size:8px;font-style:book;font-weight:book;" x="19.539844 68.555469" y="-0.921875">()</tspan>
      </text>
     </g>
    </g>
   </g>
   <g id="matplotlib.axis_2">
    <g id="ytick_1">
     <g id="line2d_5">
      <defs>
       <path d="M 0 0 
L -4.8 0 
" id="m54c1e76bac" style="stroke:#000000;"/>
      </defs>
      <g>
       <use style="stroke:#000000;" x="38.03" xlink:href="#m54c1e76bac" y="53.406"/>
      </g>
     </g>
     <g id="text_6">
      <text style="font-family:Arial;font-size:8px;font-style:normal;font-weight:normal;text-anchor:end;" transform="rotate(-0, 29.73, 56.269125)" x="29.73" y="56.269125">0.0</text>
     </g>
    </g>
    <g id="ytick_2">
     <g id="line2d_6">
      <g>
       <use style="stroke:#000000;" x="38.03" xlink:href="#m54c1e76bac" y="27.275086"/>
      </g>
     </g>
     <g id="text_7">
      <text style="font-family:Arial;font-size:8px;font-style:normal;font-weight:normal;text-anchor:end;" transform="rotate(-0, 29.73, 30.138211)" x="29.73" y="30.138211">2.5</text>
     </g>
    </g>
    <g id="text_8">
     <text style="font-family:Arial;font-size:8px;font-style:normal;font-weight:normal;text-anchor:middle;" transform="rotate(-90, 12.92625, 30.303)" x="12.92625" y="30.303">Density</text>
    </g>
   </g>
   <g id="line2d_7">
    <path clip-path="url(#p4b795f89c9)" d="M -1 53.400643 
L 23.37366 53.356392 
L 50.547085 53.279894 
L 53.264428 53.188274 
L 57.340442 52.858909 
L 60.057784 52.719291 
L 62.775127 52.120273 
L 64.133798 51.779543 
L 65.49247 51.271715 
L 66.851141 50.47015 
L 68.209812 49.504544 
L 69.568483 48.381257 
L 70.927155 46.93999 
L 72.285826 44.78441 
L 73.644497 42.158415 
L 75.003169 38.910897 
L 76.36184 34.765837 
L 80.437854 21.227007 
L 83.155196 13.714728 
L 84.513867 10.822309 
L 85.872539 9.400286 
L 87.23121 9.960533 
L 89.948553 12.71451 
L 91.307224 14.465629 
L 92.665895 17.61115 
L 95.383238 26.495447 
L 96.741909 29.834342 
L 98.10058 32.524845 
L 100.817923 38.804509 
L 102.176594 42.027927 
L 103.535265 44.677672 
L 104.893937 46.538686 
L 106.252608 47.742101 
L 110.328622 50.566054 
L 113.045964 51.882585 
L 114.404636 52.419804 
L 117.121978 52.99411 
L 121.197992 53.207588 
L 140.21939 53.405358 
L 145.654075 53.387472 
L 145.654075 53.387472 
" style="fill:none;stroke:#804d00;stroke-linecap:square;stroke-width:1.2;"/>
   </g>
   <g id="line2d_8">
    <path clip-path="url(#p4b795f89c9)" d="M -1 53.402591 
L 22.160679 53.364416 
L 58.084837 53.150204 
L 60.95877 52.887883 
L 63.832703 52.401421 
L 66.706635 51.604375 
L 68.143602 51.04394 
L 69.580568 50.351946 
L 71.017534 49.514927 
L 72.454501 48.519528 
L 73.891467 47.349855 
L 75.328434 45.991539 
L 78.202366 42.737372 
L 82.513265 37.485596 
L 83.950232 36.025834 
L 85.387198 34.808145 
L 86.824164 33.8119 
L 89.698097 32.26812 
L 91.135063 31.656652 
L 92.57203 31.182577 
L 94.008996 30.909506 
L 95.445962 30.896106 
L 96.882929 31.169557 
L 98.319895 31.71918 
L 99.756861 32.506158 
L 102.630794 34.566717 
L 106.941693 37.950351 
L 109.815626 39.966695 
L 114.126525 42.652203 
L 117.000457 44.062972 
L 119.87439 44.987567 
L 122.748323 45.555404 
L 131.370121 46.955865 
L 141.428885 48.870154 
L 167.294279 52.877253 
L 171.605178 53.191497 
L 173.042145 53.249316 
L 173.042145 53.249316 
" style="fill:none;stroke:#ffc022;stroke-linecap:square;stroke-width:1.2;"/>
   </g>
   <g id="line2d_9">
    <path clip-path="url(#p4b795f89c9)" d="M 51.190565 52.75579 
L 55.513993 52.84381 
L 58.756564 52.719474 
L 61.999136 52.410393 
L 65.241707 51.903773 
L 68.484278 51.207381 
L 72.807707 50.009444 
L 76.050278 48.90687 
L 80.373706 47.155158 
L 91.182277 42.445955 
L 94.424849 41.359244 
L 97.66742 40.521003 
L 99.829134 40.127681 
L 101.990848 39.894517 
L 104.152562 39.84246 
L 106.314277 39.976594 
L 109.556848 40.473769 
L 119.284562 42.337292 
L 124.688847 42.924054 
L 134.416561 43.781237 
L 144.144275 44.478568 
L 148.467703 45.0887 
L 153.871989 46.137178 
L 161.437988 47.607862 
L 170.084845 49.221239 
L 184.135987 52.242279 
L 187.378559 52.606768 
L 188.459416 52.690276 
L 188.459416 52.690276 
" style="fill:none;stroke:#f1caff;stroke-linecap:square;stroke-width:1.2;"/>
   </g>
   <g id="patch_3">
    <path d="M 38.03 53.406 
L 38.03 7.2 
" style="fill:none;stroke:#000000;stroke-linecap:square;stroke-linejoin:miter;"/>
   </g>
   <g id="patch_4">
    <path d="M 191.48 53.406 
L 191.48 7.2 
" style="fill:none;stroke:#000000;stroke-linecap:square;stroke-linejoin:miter;"/>
   </g>
   <g id="patch_5">
    <path d="M 38.03 53.406 
L 191.48 53.406 
" style="fill:none;stroke:#000000;stroke-linecap:square;stroke-linejoin:miter;"/>
   </g>
   <g id="patch_6">
    <path d="M 38.03 7.2 
L 191.48 7.2 
" style="fill:none;stroke:#000000;stroke-linecap:square;stroke-linejoin:miter;"/>
   </g>
   <g id="text_9">
    <text style="fill:#804d00;font-family:DejaVu Sans;font-size:8px;font-style:normal;font-weight:normal;text-anchor:start;" transform="rotate(-0, 91.505, 14.209628)" x="91.505" y="14.209628">RING1B-</text>
   </g>
   <g id="text_10">
    <text style="fill:#ffc022;font-family:DejaVu Sans;font-size:8px;font-style:normal;font-weight:normal;text-anchor:start;" transform="rotate(-0, 98.48, 27.275086)" x="98.48" y="27.275086">RING1B+</text>
   </g>
   <g id="text_11">
    <text style="fill:#f1caff;font-family:DejaVu Sans;font-size:8px;font-style:normal;font-weight:normal;" transform="translate(135.68 33.995384)">RING1B+</text>
    <text style="fill:#f1caff;font-family:DejaVu Sans;font-size:8px;font-style:normal;font-weight:normal;" transform="translate(135.68 42.953634)">H3K27+</text>
   </g>
  </g>
 </g>
 <defs>
  <clipPath id="p4b795f89c9">
   <rect height="46.206" width="153.45" x="38.03" y="7.2"/>
  </clipPath>
 </defs>
</svg>
